<?xml version="1.0" encoding="UTF-8"?>
<svg version="1.1" xmlns="http://www.w3.org/2000/svg" width="500" height="500">
<path d="M0 0 C15.94698116 14.14574082 25.93696978 28.8627265 34.63476562 48.27832031 C35.12299805 49.34735596 35.12299805 49.34735596 35.62109375 50.43798828 C35.93288574 51.17033691 36.24467773 51.90268555 36.56591797 52.65722656 C37.55558175 54.76861 37.55558175 54.76861 40.53515625 55.42236328 C42.37207031 55.80134766 42.37207031 55.80134766 44.24609375 56.18798828 C62.84072088 60.56066641 79.17634053 71.58179682 89.71484375 87.62548828 C101.26791392 106.50398139 105.12927209 126.68219434 100.49609375 148.43798828 C95.39933197 166.90451647 83.17735382 182.2343194 66.62109375 191.75048828 C52.81504772 199.43798828 52.81504772 199.43798828 47.62109375 199.43798828 C45.39331448 178.7783957 45.39331448 178.7783957 48.91455078 173.49853516 C51.67708672 171.0134806 54.68215011 169.51782062 58.0703125 168.05126953 C61.85299888 166.33262324 63.865625 164.50230116 66.62109375 161.43798828 C67.15734375 160.92236328 67.69359375 160.40673828 68.24609375 159.87548828 C76.65835272 151.0808539 78.95524056 138.65927426 78.8359375 126.91455078 C77.98958018 113.21895054 72.0444285 101.27535356 62.62109375 91.43798828 C49.87221976 80.3875309 34.90546244 77.68345355 18.62109375 76.43798828 C18.48646729 75.89086182 18.35184082 75.34373535 18.21313477 74.7800293 C13.95935049 57.86907369 8.17788604 42.75527472 -3.37890625 29.43798828 C-3.81074219 28.86435547 -4.24257813 28.29072266 -4.6875 27.69970703 C-17.68651744 10.92055989 -40.72330898 0.31849315 -61.37890625 -2.56201172 C-89.35144161 -4.74142527 -113.81337207 1.00145053 -135.37890625 19.43798828 C-143.14833787 26.42488722 -149.94291136 33.91163429 -154.24609375 43.52001953 C-159.40112686 54.62249582 -159.40112686 54.62249582 -165.0546875 56.95361328 C-168.47222623 57.64402935 -171.92342475 57.92222343 -175.39501953 58.20410156 C-188.72816791 59.77598886 -201.87930072 69.57680788 -210.3125 79.57861328 C-221.83827743 95.5273261 -225.89577281 113.02270308 -223.06982422 132.57666016 C-219.7799548 149.26549965 -209.5189746 162.13390591 -196.37890625 172.43798828 C-195.71890625 172.76798828 -195.05890625 173.09798828 -194.37890625 173.43798828 C-194.37890625 182.01798828 -194.37890625 190.59798828 -194.37890625 199.43798828 C-213.98531794 192.90251772 -229.50351633 176.58020392 -238.75390625 158.50048828 C-249.06236881 137.44285739 -250.4554498 113.35762937 -243.3125 91.11767578 C-235.12306194 68.25211605 -219.11154368 50.49837196 -197.26953125 39.93408203 C-182.29942864 33.43798828 -182.29942864 33.43798828 -175.37890625 33.43798828 C-175.13269531 32.56658203 -174.88648438 31.69517578 -174.6328125 30.79736328 C-166.65259791 9.4173491 -142.68756115 -7.22413527 -122.94140625 -16.87451172 C-82.73753003 -34.46059388 -33.6281551 -28.9214713 0 0 Z " fill="#3347C5" transform="translate(323.37890625,163.56201171875)"/>
<path d="M0 0 C2.28446795 0.97289277 3.55684805 2.04658769 5.29980469 3.81097412 C5.92014587 4.4315419 6.54048706 5.05210968 7.17962646 5.69148254 C7.83706848 6.36440842 8.4945105 7.03733429 9.171875 7.73065186 C10.1955014 8.76064552 10.1955014 8.76064552 11.23980713 9.81144714 C13.41701196 12.00543976 15.58355281 14.20963476 17.75 16.41424561 C19.22456971 17.90386194 20.69982213 19.3928028 22.17578125 20.88104248 C25.79182176 24.53015369 29.39833288 28.18844939 33 31.85174561 C32.67 32.84174561 32.34 33.83174561 32 34.85174561 C29.03 34.85174561 26.06 34.85174561 23 34.85174561 C23.03809915 44.77062797 23.09752231 54.68913412 23.18390274 64.60772038 C23.22335193 69.21373447 23.2555529 73.81955811 23.27099609 78.42572021 C23.28617962 82.87392933 23.320655 87.32161479 23.36830902 91.76959038 C23.38310539 93.46353024 23.39104001 95.15754487 23.39188385 96.85154915 C23.39426061 99.23116505 23.42139467 101.60934203 23.45410156 103.9887085 C23.4490712 104.68354843 23.44404083 105.37838837 23.43885803 106.09428406 C23.57991925 112.7607668 26.07646578 116.92821138 30.75 121.60174561 C31.4925 122.34424561 32.235 123.08674561 33 123.85174561 C33 124.84174561 33 125.83174561 33 126.85174561 C26.84361392 126.92606127 20.68749065 126.98042644 14.53076172 127.01654053 C12.43761647 127.03160029 10.34450264 127.05205232 8.25146484 127.07806396 C5.23787672 127.11457061 2.22470688 127.13150033 -0.7890625 127.14471436 C-1.72054108 127.16019821 -2.65201965 127.17568207 -3.61172485 127.19163513 C-9.73431702 127.19321083 -14.18531165 126.44810384 -18.86328125 122.13299561 C-19.58064453 121.25127686 -19.58064453 121.25127686 -20.3125 120.35174561 C-20.80363281 119.76393311 -21.29476562 119.17612061 -21.80078125 118.57049561 C-24.48106384 114.72904825 -24.13563206 110.73507439 -24.11352539 106.25921631 C-24.11367142 105.48824615 -24.11381744 104.717276 -24.1139679 103.92294312 C-24.11327119 101.37444242 -24.1054901 98.82601479 -24.09765625 96.27752686 C-24.09579121 94.51061544 -24.09436771 92.7437035 -24.09336853 90.97679138 C-24.08955012 86.32596408 -24.07972558 81.67516799 -24.06866455 77.02435303 C-24.05843591 72.27867047 -24.05386779 67.53298288 -24.04882812 62.78729248 C-24.03810273 53.4754298 -24.02103439 44.1635903 -24 34.85174561 C-26.97 34.85174561 -29.94 34.85174561 -33 34.85174561 C-33 30.54845727 -32.99578533 30.34605215 -30.21777344 27.53607178 C-29.30617462 26.60071846 -29.30617462 26.60071846 -28.37615967 25.64646912 C-27.71062073 24.98589005 -27.04508179 24.32531097 -26.359375 23.64471436 C-25.6807843 22.95992508 -25.0021936 22.2751358 -24.30303955 21.56959534 C-22.8654107 20.12486146 -21.42261255 18.68525591 -19.97509766 17.25042725 C-17.75671958 15.04592316 -15.5633769 12.81849425 -13.37109375 10.58807373 C-11.97280599 9.18883493 -10.57311246 7.79099924 -9.171875 6.39471436 C-8.51443298 5.72401413 -7.85699097 5.0533139 -7.17962646 4.36228943 C-6.55928528 3.75448135 -5.93894409 3.14667328 -5.29980469 2.52044678 C-4.75797546 1.97957932 -4.21614624 1.43871185 -3.65789795 0.88145447 C-2 -0.14825439 -2 -0.14825439 0 0 Z " fill="#3347C5" transform="translate(179,240.14825439453125)"/>
<path d="M0 0 C2.26948915 0.96265992 3.55589313 2.02317422 5.30079651 3.76039124 C5.9211377 4.37127594 6.54147888 4.98216064 7.18061829 5.61155701 C7.8380603 6.27507172 8.49550232 6.93858643 9.17286682 7.62220764 C10.19649323 8.64152878 10.19649323 8.64152878 11.24079895 9.68144226 C12.68001798 11.1186211 14.11546055 12.55959028 15.54737854 14.00404358 C17.74612083 16.21886353 19.96041676 18.41721742 22.17677307 20.61439514 C23.57226748 22.01187151 24.96683125 23.41027795 26.36036682 24.80970764 C27.02590576 25.46917389 27.6914447 26.12864014 28.37715149 26.80809021 C28.98488403 27.42527924 29.59261658 28.04246826 30.21876526 28.67835999 C31.02673553 29.48991043 31.02673553 29.48991043 31.85102844 30.31785583 C33.00099182 31.84877014 33.00099182 31.84877014 33.00099182 34.84877014 C29.70099182 34.84877014 26.40099182 34.84877014 23.00099182 34.84877014 C23.01591534 42.40355328 23.05772557 49.95779198 23.13308239 57.51220703 C23.16725315 61.02080188 23.19244668 64.52896593 23.19654846 68.03773499 C23.20167834 72.07943098 23.24688813 76.11984334 23.29396057 80.16127014 C23.29002792 81.41053284 23.28609528 82.65979553 23.28204346 83.94691467 C23.4286882 92.76078595 25.08383325 97.93161157 31.31349182 104.16127014 C33.00099182 105.84877014 33.00099182 105.84877014 33.00099182 108.84877014 C27.00533228 108.92317691 21.00994424 108.97749376 15.01393127 109.01356506 C12.9761232 109.02860961 10.93834728 109.04905026 8.90065002 109.0750885 C5.96396427 109.11166261 3.02770831 109.12854013 0.09083557 109.14173889 C-0.81360794 109.15722275 -1.71805145 109.1727066 -2.64990234 109.18865967 C-8.78729806 109.19027607 -13.82865376 108.50403266 -18.70603943 104.41908264 C-22.68786505 99.21316222 -24.25363138 95.32177951 -24.22605896 88.77333069 C-24.2259079 87.57246323 -24.22575684 86.37159576 -24.2256012 85.13433838 C-24.21527863 83.84771805 -24.20495605 82.56109772 -24.19432068 81.23548889 C-24.1905873 79.8974224 -24.18774186 78.55935317 -24.18574524 77.22128296 C-24.17813434 73.71135316 -24.158508 70.20159069 -24.13633728 66.69172668 C-24.11582382 63.10542565 -24.1067318 59.5190974 -24.09666443 55.93275452 C-24.07525947 48.90469129 -24.04115449 41.87673876 -23.99900818 34.84877014 C-27.29900818 34.84877014 -30.59900818 34.84877014 -33.99900818 34.84877014 C-33.0292128 30.96958864 -32.71179586 30.18257688 -30.10325623 27.53309631 C-29.49559921 26.90952744 -28.8879422 26.28595856 -28.26187134 25.64349365 C-27.27130486 24.65262505 -27.27130486 24.65262505 -26.26072693 23.64173889 C-25.58355118 22.95694962 -24.90637543 22.27216034 -24.2086792 21.56661987 C-22.77589095 20.12303314 -21.33911219 18.68339771 -19.89866638 17.24745178 C-17.69122561 15.04098549 -15.50597258 12.81405656 -13.3212738 10.58509827 C-11.9273938 9.18601315 -10.53225327 7.78818251 -9.13572693 6.39173889 C-8.48142197 5.72103867 -7.827117 5.05033844 -7.15298462 4.35931396 C-6.53587112 3.75150589 -5.91875763 3.14369781 -5.28294373 2.51747131 C-4.74413071 1.97660385 -4.20531769 1.43573639 -3.650177 0.878479 C-1.99900818 -0.15122986 -1.99900818 -0.15122986 0 0 Z " fill="#3347C4" transform="translate(249.99900817871094,258.15122985839844)"/>
<path d="M0 0 C2.28446795 0.97289277 3.55684805 2.04658769 5.29980469 3.81097412 C5.92014587 4.4315419 6.54048706 5.05210968 7.17962646 5.69148254 C7.83706848 6.36440842 8.4945105 7.03733429 9.171875 7.73065186 C10.1955014 8.76064552 10.1955014 8.76064552 11.23980713 9.81144714 C13.41701196 12.00543976 15.58355281 14.20963476 17.75 16.41424561 C19.22456971 17.90386194 20.69982213 19.3928028 22.17578125 20.88104248 C25.79182176 24.53015369 29.39833288 28.18844939 33 31.85174561 C32.67 32.84174561 32.34 33.83174561 32 34.85174561 C29.03 34.85174561 26.06 34.85174561 23 34.85174561 C23.04435543 40.26004859 23.11439947 45.66720653 23.20751953 51.07489014 C23.23561931 52.91171113 23.25688818 54.74865058 23.27099609 56.58563232 C23.29257897 59.23744874 23.33930499 61.88785745 23.390625 64.53924561 C23.39185364 65.35103271 23.39308228 66.16281982 23.39434814 66.99920654 C23.61418068 75.6972997 26.84350377 80.86626316 33 86.85174561 C33 87.84174561 33 88.83174561 33 89.85174561 C26.86194526 89.95093724 20.72436147 90.02336725 14.58569336 90.07147217 C12.49934761 90.09153474 10.41305773 90.1187915 8.3269043 90.15350342 C5.32066022 90.2022572 2.31516231 90.22476828 -0.69140625 90.24237061 C-1.61772354 90.26301575 -2.54404083 90.28366089 -3.49842834 90.30493164 C-10.32314385 90.3072737 -14.55899955 88.93784466 -19.7421875 84.28924561 C-23.12333905 79.99868088 -24.13010273 77.0050307 -24.11352539 71.63397217 C-24.11344986 70.81342346 -24.11337433 69.99287476 -24.11329651 69.14746094 C-24.10813522 68.27128113 -24.10297394 67.39510132 -24.09765625 66.49237061 C-24.0962413 65.58799255 -24.09482635 64.6836145 -24.09336853 63.75183105 C-24.08777911 60.86843534 -24.07522853 57.98511778 -24.0625 55.10174561 C-24.05748363 53.14471548 -24.05292096 51.18768413 -24.04882812 49.23065186 C-24.03781313 44.43765307 -24.02055574 39.64471258 -24 34.85174561 C-26.97 34.85174561 -29.94 34.85174561 -33 34.85174561 C-33 30.54845727 -32.99578533 30.34605215 -30.21777344 27.53607178 C-29.30617462 26.60071846 -29.30617462 26.60071846 -28.37615967 25.64646912 C-27.71062073 24.98589005 -27.04508179 24.32531097 -26.359375 23.64471436 C-25.6807843 22.95992508 -25.0021936 22.2751358 -24.30303955 21.56959534 C-22.8654107 20.12486146 -21.42261255 18.68525591 -19.97509766 17.25042725 C-17.75671958 15.04592316 -15.5633769 12.81849425 -13.37109375 10.58807373 C-11.97280599 9.18883493 -10.57311246 7.79099924 -9.171875 6.39471436 C-8.51443298 5.72401413 -7.85699097 5.0533139 -7.17962646 4.36228943 C-6.55928528 3.75448135 -5.93894409 3.14667328 -5.29980469 2.52044678 C-4.75797546 1.97957932 -4.21614624 1.43871185 -3.65789795 0.88145447 C-2 -0.14825439 -2 -0.14825439 0 0 Z " fill="#3347C5" transform="translate(321,277.14825439453125)"/>
</svg>
