<?xml version="1.0" encoding="UTF-8"?>
<svg version="1.1" xmlns="http://www.w3.org/2000/svg" width="550" height="380">
<path d="M0 0 C0.7740947 -0.00453111 1.5481894 -0.00906223 2.34574151 -0.01373065 C4.92409855 -0.0263302 7.50224314 -0.02475716 10.08062744 -0.02310181 C11.93571238 -0.02908988 13.79079483 -0.03589606 15.64587402 -0.04345703 C20.6749767 -0.06109688 25.70401128 -0.06581159 30.7331419 -0.0670886 C33.87860252 -0.06851202 37.02404592 -0.07278525 40.16950226 -0.07808304 C51.1529093 -0.09657738 62.13626785 -0.10475449 73.11968994 -0.10317993 C83.34153537 -0.10197903 93.56316949 -0.12307286 103.78496146 -0.15466726 C112.57417151 -0.18086106 121.36331267 -0.19154591 130.15256143 -0.19026911 C135.39605153 -0.18976035 140.63935381 -0.19539605 145.88280487 -0.21662521 C150.81755379 -0.23605962 155.75193672 -0.23609654 160.68669891 -0.22159195 C162.49137917 -0.21950913 164.29608264 -0.22417312 166.10072327 -0.23631287 C177.9718737 -0.31095734 189.37992511 -0.13636108 198.52301025 8.56820679 C204.95453283 15.87293869 207.32885661 23.52635011 207.28652954 33.24832153 C207.29106065 34.02241623 207.29559177 34.79651093 207.30026019 35.59406304 C207.31285975 38.17242008 207.3112867 40.75056468 207.30963135 43.32894897 C207.31561942 45.18403391 207.32242561 47.03911636 207.32998657 48.89419556 C207.34762642 53.92329823 207.35234113 58.95233281 207.35361814 63.98146343 C207.35504156 67.12692405 207.3593148 70.27236746 207.36461258 73.41782379 C207.38310692 84.40123083 207.39128403 95.38458938 207.38970947 106.36801147 C207.38850857 116.58985691 207.4096024 126.81149102 207.4411968 137.033283 C207.4673906 145.82249304 207.47807545 154.6116342 207.47679865 163.40088296 C207.47628989 168.64437306 207.48192559 173.88767534 207.50315475 179.1311264 C207.52258916 184.06587532 207.52262608 189.00025825 207.50812149 193.93502045 C207.50603867 195.7397007 207.51070266 197.54440418 207.52284241 199.3490448 C207.59748689 211.22019523 207.42289062 222.62824665 198.71832275 231.77133179 C191.41359085 238.20285436 183.76017943 240.57717815 174.03820801 240.53485107 C173.26411331 240.53938219 172.49001861 240.5439133 171.6924665 240.54858172 C169.11410946 240.56118128 166.53596486 240.55960824 163.95758057 240.55795288 C162.10249563 240.56394095 160.24741318 240.57074714 158.39233398 240.57830811 C153.36323131 240.59594796 148.33419673 240.60066267 143.30506611 240.60193968 C140.15960549 240.60336309 137.01416208 240.60763633 133.86870575 240.61293411 C122.88529871 240.63142845 111.90194016 240.63960556 100.91851807 240.63803101 C90.69667263 240.63683011 80.47503852 240.65792393 70.25324655 240.68951833 C61.4640365 240.71571213 52.67489534 240.72639698 43.88564658 240.72512019 C38.64215648 240.72461142 33.3988542 240.73024713 28.15540314 240.75147629 C23.22065422 240.77091069 18.28627129 240.77094761 13.35150909 240.75644302 C11.54682884 240.75436021 9.74212537 240.7590242 7.93748474 240.77116394 C-3.93366569 240.84580842 -15.3417171 240.67121216 -24.48480225 231.96664429 C-30.91632482 224.66191238 -33.29064861 217.00850096 -33.24832153 207.28652954 C-33.2551182 206.12538749 -33.2551182 206.12538749 -33.26205218 204.94078803 C-33.27465174 202.362431 -33.2730787 199.7842864 -33.27142334 197.2059021 C-33.27741141 195.35081716 -33.2842176 193.49573471 -33.29177856 191.64065552 C-33.30941842 186.61155284 -33.31413313 181.58251827 -33.31541014 176.55338764 C-33.31683355 173.40792702 -33.32110679 170.26248362 -33.32640457 167.11702728 C-33.34489891 156.13362024 -33.35307602 145.15026169 -33.35150146 134.1668396 C-33.35030057 123.94499417 -33.37139439 113.72336006 -33.40298879 103.50156808 C-33.42918259 94.71235803 -33.43986744 85.92321687 -33.43859065 77.13396811 C-33.43808188 71.89047801 -33.44371759 66.64717573 -33.46494675 61.40372467 C-33.48438115 56.46897575 -33.48441807 51.53459283 -33.46991348 46.59983063 C-33.46783066 44.79515037 -33.47249466 42.9904469 -33.4846344 41.18580627 C-33.55927888 29.31465584 -33.38468261 17.90660443 -24.68011475 8.76351929 C-17.37538284 2.33199671 -9.72197142 -0.04232707 0 0 Z " fill="#EC5990" transform="translate(188.98089599609375,9.732574462890625)"/>
<path d="M0 0 C2.6875 2.25 2.6875 2.25 3.9855957 4.35913086 C5.57585167 6.51199477 5.57585167 6.51199477 8.37963867 6.74829102 C9.4441626 6.75014404 10.50868652 6.75199707 11.60546875 6.75390625 C13.36407227 6.78194336 13.36407227 6.78194336 15.15820312 6.81054688 C16.38474609 6.81119141 17.61128906 6.81183594 18.875 6.8125 C36.64987801 6.8789304 36.64987801 6.8789304 42.74609375 11.96875 C43.20113281 12.5565625 43.65617187 13.144375 44.125 13.75 C44.59808594 14.3378125 45.07117188 14.925625 45.55859375 15.53125 C47.48409346 18.46280665 47.81569428 21.02000107 47.84140015 24.429245 C47.85000061 25.28005142 47.85860107 26.13085785 47.86746216 27.00744629 C47.87172211 27.93786743 47.87598206 28.86828857 47.88037109 29.8269043 C47.89263733 31.3005822 47.89263733 31.3005822 47.90515137 32.80403137 C47.92999683 36.0607543 47.94652022 39.31743364 47.9609375 42.57421875 C47.96626118 43.68680368 47.97158485 44.79938862 47.97706985 45.94568825 C48.00379907 51.83577409 48.02317384 57.72583876 48.03759766 63.6159668 C48.05423544 69.69454059 48.09900723 75.77257117 48.1499691 81.85093975 C48.18365534 86.52904368 48.1951767 91.20701895 48.20082474 95.88523293 C48.20753443 98.12548786 48.22274902 100.36573442 48.24671555 102.6058712 C48.27839524 105.74640283 48.27839904 108.88547305 48.27099609 112.02612305 C48.28740143 112.94642303 48.30380676 113.86672302 48.32070923 114.81491089 C48.26063673 121.06088707 47.05316135 125.62480232 42.6875 130.25 C37.55942326 134.10852232 32.45712933 134.8357132 26.1953125 134.76757812 C25.3876947 134.7745874 24.5800769 134.78159668 23.74798584 134.78881836 C21.10246465 134.80629299 18.45803034 134.7948137 15.8125 134.78125 C13.95979611 134.78394795 12.1070936 134.7878329 10.25439453 134.79284668 C6.38104707 134.79872746 2.50806987 134.79022475 -1.36523438 134.77148438 C-6.31486487 134.74869565 -11.26362761 134.76182637 -16.21322632 134.78577423 C-20.0361172 134.80027073 -23.85880444 134.79560861 -27.68170166 134.78526306 C-29.50604354 134.78260641 -31.33040428 134.78582794 -33.15472412 134.79518127 C-35.71041408 134.80541075 -38.26472454 134.78975795 -40.8203125 134.76757812 C-41.56444397 134.77567505 -42.30857544 134.78377197 -43.07525635 134.79211426 C-48.51424249 134.70524684 -52.91609313 133.55843924 -57.3125 130.25 C-62.45438726 124.79427857 -63.04240883 119.24423271 -62.9753418 112.01367188 C-62.98570969 111.02073624 -62.99607758 110.0278006 -63.00675964 109.004776 C-63.03373013 105.74233959 -63.02418926 102.48125678 -63.01171875 99.21875 C-63.01763124 96.94005968 -63.02487946 94.66137248 -63.03340149 92.38269043 C-63.04526439 87.61482517 -63.0386019 82.84742726 -63.01928711 78.07958984 C-62.99639574 71.97960024 -63.02319319 65.88100315 -63.06434917 59.78115082 C-63.08996251 55.07809031 -63.08733763 50.37536148 -63.07645607 45.67225647 C-63.07497249 43.42365758 -63.08262329 41.17503289 -63.09970665 38.92649841 C-63.11974135 35.77892335 -63.10123394 32.63379185 -63.07299805 29.48632812 C-63.08671448 28.56453262 -63.10043091 27.64273712 -63.11456299 26.69300842 C-62.9949418 19.99760862 -60.98656013 16.03689227 -56.3125 11.25 C-51.38629867 7.61399426 -47.2108344 7.13598668 -41.19140625 7.14453125 C-40.00869141 7.12970703 -38.82597656 7.11488281 -37.60742188 7.09960938 C-35.1231642 7.0749098 -32.63863592 7.06963911 -30.15429688 7.08398438 C-23.95300527 7.20170832 -23.95300527 7.20170832 -18.41479492 4.90917969 C-16.88249252 3.1363178 -16.88249252 3.1363178 -15.3125 0.25 C-10.62368783 -3.30702992 -4.88178449 -2.57905596 0 0 Z " fill="#EC5990" transform="translate(283.3125,63.75)"/>
<path d="M0 0 C2.6875 2.25 2.6875 2.25 3.9855957 4.35913086 C5.57585167 6.51199477 5.57585167 6.51199477 8.37963867 6.74829102 C9.4441626 6.75014404 10.50868652 6.75199707 11.60546875 6.75390625 C13.36407227 6.78194336 13.36407227 6.78194336 15.15820312 6.81054688 C16.38474609 6.81119141 17.61128906 6.81183594 18.875 6.8125 C36.64987801 6.8789304 36.64987801 6.8789304 42.74609375 11.96875 C43.20113281 12.5565625 43.65617187 13.144375 44.125 13.75 C44.59808594 14.3378125 45.07117188 14.925625 45.55859375 15.53125 C47.48409346 18.46280665 47.81569428 21.02000107 47.84140015 24.429245 C47.85000061 25.28005142 47.85860107 26.13085785 47.86746216 27.00744629 C47.87172211 27.93786743 47.87598206 28.86828857 47.88037109 29.8269043 C47.89263733 31.3005822 47.89263733 31.3005822 47.90515137 32.80403137 C47.92999683 36.0607543 47.94652022 39.31743364 47.9609375 42.57421875 C47.96626118 43.68680368 47.97158485 44.79938862 47.97706985 45.94568825 C48.00379907 51.83577409 48.02317384 57.72583876 48.03759766 63.6159668 C48.05423544 69.69454059 48.09900723 75.77257117 48.1499691 81.85093975 C48.18365534 86.52904368 48.1951767 91.20701895 48.20082474 95.88523293 C48.20753443 98.12548786 48.22274902 100.36573442 48.24671555 102.6058712 C48.27839524 105.74640283 48.27839904 108.88547305 48.27099609 112.02612305 C48.28740143 112.94642303 48.30380676 113.86672302 48.32070923 114.81491089 C48.26063673 121.06088707 47.05316135 125.62480232 42.6875 130.25 C37.55942326 134.10852232 32.45712933 134.8357132 26.1953125 134.76757812 C25.3876947 134.7745874 24.5800769 134.78159668 23.74798584 134.78881836 C21.10246465 134.80629299 18.45803034 134.7948137 15.8125 134.78125 C13.95979611 134.78394795 12.1070936 134.7878329 10.25439453 134.79284668 C6.38104707 134.79872746 2.50806987 134.79022475 -1.36523438 134.77148438 C-6.31486487 134.74869565 -11.26362761 134.76182637 -16.21322632 134.78577423 C-20.0361172 134.80027073 -23.85880444 134.79560861 -27.68170166 134.78526306 C-29.50604354 134.78260641 -31.33040428 134.78582794 -33.15472412 134.79518127 C-35.71041408 134.80541075 -38.26472454 134.78975795 -40.8203125 134.76757812 C-41.56444397 134.77567505 -42.30857544 134.78377197 -43.07525635 134.79211426 C-48.51424249 134.70524684 -52.91609313 133.55843924 -57.3125 130.25 C-62.45438726 124.79427857 -63.04240883 119.24423271 -62.9753418 112.01367188 C-62.98570969 111.02073624 -62.99607758 110.0278006 -63.00675964 109.004776 C-63.03373013 105.74233959 -63.02418926 102.48125678 -63.01171875 99.21875 C-63.01763124 96.94005968 -63.02487946 94.66137248 -63.03340149 92.38269043 C-63.04526439 87.61482517 -63.0386019 82.84742726 -63.01928711 78.07958984 C-62.99639574 71.97960024 -63.02319319 65.88100315 -63.06434917 59.78115082 C-63.08996251 55.07809031 -63.08733763 50.37536148 -63.07645607 45.67225647 C-63.07497249 43.42365758 -63.08262329 41.17503289 -63.09970665 38.92649841 C-63.11974135 35.77892335 -63.10123394 32.63379185 -63.07299805 29.48632812 C-63.08671448 28.56453262 -63.10043091 27.64273712 -63.11456299 26.69300842 C-62.9949418 19.99760862 -60.98656013 16.03689227 -56.3125 11.25 C-51.38629867 7.61399426 -47.2108344 7.13598668 -41.19140625 7.14453125 C-40.00869141 7.12970703 -38.82597656 7.11488281 -37.60742188 7.09960938 C-35.1231642 7.0749098 -32.63863592 7.06963911 -30.15429688 7.08398438 C-23.95300527 7.20170832 -23.95300527 7.20170832 -18.41479492 4.90917969 C-16.88249252 3.1363178 -16.88249252 3.1363178 -15.3125 0.25 C-10.62368783 -3.30702992 -4.88178449 -2.57905596 0 0 Z M-56.3125 15.25 C-59.67673804 20.47655385 -59.74145705 24.91643816 -59.70068359 30.92382812 C-59.70594055 31.88067001 -59.71119751 32.8375119 -59.71661377 33.823349 C-59.72978301 36.97615029 -59.7210864 40.12844386 -59.7109375 43.28125 C-59.71295911 45.47790626 -59.71587128 47.67456186 -59.71963501 49.87121582 C-59.7240542 54.47101238 -59.71764019 59.07063396 -59.70361328 63.67041016 C-59.68652181 69.56177957 -59.69636513 75.45273895 -59.71433067 81.34409332 C-59.72517933 85.87887655 -59.72171716 90.41356282 -59.7139473 94.948349 C-59.71194829 97.12043812 -59.71439402 99.29253608 -59.72138596 101.46461487 C-59.72901806 104.50203722 -59.71737114 107.53879865 -59.70068359 110.57617188 C-59.70675629 111.47089706 -59.71282898 112.36562225 -59.71908569 113.28746033 C-59.6675789 118.35674062 -59.13185428 121.86214694 -56.3125 126.25 C-51.23327918 130.94827926 -47.22292653 131.4011257 -40.53979492 131.41113281 C-39.74920181 131.41609772 -38.9586087 131.42106262 -38.14405823 131.42617798 C-35.52701956 131.44078981 -32.91004152 131.4476002 -30.29296875 131.453125 C-28.47316995 131.45887756 -26.65337116 131.46463528 -24.83357239 131.47039795 C-21.01624265 131.48090535 -17.19893396 131.48674963 -13.3815918 131.49023438 C-8.49569534 131.4957165 -3.61007792 131.5197396 1.27573109 131.54820633 C5.03587144 131.5668522 8.79594487 131.57203936 12.55612755 131.57357025 C14.35701713 131.57659324 16.15790563 131.58460985 17.95874977 131.59775543 C20.48158467 131.6148557 23.0037416 131.61292604 25.52661133 131.60644531 C26.2670871 131.6156601 27.00756287 131.62487488 27.77047729 131.6343689 C32.48529656 131.59652689 35.68240575 130.73406638 39.6875 128.25 C43.25780957 124.39020587 44.80348192 121.41957034 44.83467102 116.17791748 C44.84182632 115.35090836 44.84898163 114.52389923 44.85635376 113.67182922 C44.85904266 112.76788925 44.86173157 111.86394928 44.86450195 110.93261719 C44.87107315 109.97781967 44.87764435 109.02302216 44.88441467 108.03929138 C44.90414742 104.8751518 44.91581035 101.71105969 44.92578125 98.546875 C44.92985678 97.4661396 44.9339323 96.38540421 44.93813133 95.27191925 C44.95899212 89.55156139 44.97329374 83.83122752 44.98266602 78.11083984 C44.99372947 72.2048814 45.02812894 66.29929982 45.06783772 60.39347458 C45.09399325 55.85009057 45.10235694 51.30679649 45.10594749 46.76334381 C45.11081629 44.58647365 45.12243857 42.40960757 45.14098549 40.23281097 C45.16535336 37.18322456 45.16441592 34.13461507 45.1574707 31.08496094 C45.17028076 30.18911789 45.18309082 29.29327484 45.19628906 28.37028503 C45.1475897 22.49108175 44.07371614 19.08699559 40.6875 14.25 C36.31578727 10.30986403 31.43774273 10.90072001 25.875 11.0625 C24.54952148 11.08280273 24.54952148 11.08280273 23.19726562 11.10351562 C21.02707977 11.13870783 18.85720967 11.19251015 16.6875 11.25 C16.57792969 12.22582031 16.46835937 13.20164062 16.35546875 14.20703125 C16.11763672 16.11548828 16.11763672 16.11548828 15.875 18.0625 C15.64876953 19.95935547 15.64876953 19.95935547 15.41796875 21.89453125 C14.6670783 25.34380879 14.36300239 26.16972445 11.6875 28.25 C8.78126282 28.54835467 6.09380697 28.67032628 3.1875 28.6484375 C2.35541016 28.65130768 1.52332031 28.65417786 0.66601562 28.65713501 C-1.09245484 28.65917562 -2.85094801 28.65364593 -4.609375 28.64111328 C-7.30259913 28.62505902 -9.9943226 28.64096145 -12.6875 28.66015625 C-14.39583665 28.65817382 -16.10417236 28.65433014 -17.8125 28.6484375 C-19.02196289 28.65754654 -19.02196289 28.65754654 -20.25585938 28.6668396 C-25.86748603 28.59616742 -25.86748603 28.59616742 -28.00585938 26.93276978 C-31.11839101 22.92426578 -30.3125 17.09180807 -30.3125 12.25 C-32.5402076 10.0222924 -37.5113665 10.97068246 -40.5 10.9375 C-41.35142578 10.90849609 -42.20285156 10.87949219 -43.08007812 10.84960938 C-48.63853889 10.79372385 -52.0397263 11.34031481 -56.3125 15.25 Z " fill="#FEFAFC" transform="translate(283.3125,63.75)"/>
<path d="M0 0 C2.6875 1.125 2.6875 1.125 5 3 C5.4125 4.03125 5.825 5.0625 6.25 6.125 C7.64786058 9.17882939 7.64786058 9.17882939 10.1484375 9.5390625 C11.77502001 9.67760423 13.40689828 9.76518249 15.0390625 9.796875 C16.00972656 9.89742187 16.00972656 9.89742187 17 10 C18.33972193 12.67944385 17.98479055 14.52598631 17.75 17.5 C17.68296875 18.4796875 17.6159375 19.459375 17.546875 20.46875 C17 23 17 23 14 25 C11.42164261 25.20742649 8.95386335 25.30405108 6.375 25.30078125 C5.63169434 25.30506638 4.88838867 25.3093515 4.12255859 25.31376648 C2.55241921 25.31950451 0.98225325 25.32001391 -0.58789062 25.31567383 C-2.99134549 25.31251139 -5.3935721 25.33598617 -7.796875 25.36132812 C-9.32291511 25.36360093 -10.84895854 25.3643047 -12.375 25.36328125 C-13.09381348 25.372491 -13.81262695 25.38170074 -14.55322266 25.39118958 C-17.47629238 25.36404691 -19.50550843 25.3384564 -21.95825195 23.65966797 C-23.57892288 21.07768508 -23.28431344 18.81371656 -23.1875 15.8125 C-23.16042969 14.72582031 -23.13335937 13.63914062 -23.10546875 12.51953125 C-23.07066406 11.68808594 -23.03585938 10.85664062 -23 10 C-19.7 9.67 -16.4 9.34 -13 9 C-12.731875 8.236875 -12.46375 7.47375 -12.1875 6.6875 C-9.60481948 0.84248618 -6.23028538 -0.48864983 0 0 Z " fill="#EC5C92" transform="translate(279,65)"/>
<path d="M0 0 C0.99 0.66 1.98 1.32 3 2 C3 2.66 3 3.32 3 4 C3.845625 3.360625 4.69125 2.72125 5.5625 2.0625 C8.97938129 -0.19393104 11.85828838 -0.92469615 16 -1 C19.57387602 0.58838934 20.81089572 1.71634358 23 5 C24.18767942 10.05331118 24.18333716 15.0880828 24.1875 20.25 C24.19974609 21.0646875 24.21199219 21.879375 24.22460938 22.71875 C24.22981239 24.81383174 24.1229057 26.90851996 24 29 C23.34 29.66 22.68 30.32 22 31 C18.46428571 30.46428571 18.46428571 30.46428571 17 29 C16.85492735 27.37877577 16.7728999 25.75180111 16.71875 24.125 C16.66267578 22.64773438 16.66267578 22.64773438 16.60546875 21.140625 C16.53515625 19.046875 16.46484375 16.953125 16.39453125 14.859375 C16.33845703 13.38210938 16.33845703 13.38210938 16.28125 11.875 C16.25095703 10.96492188 16.22066406 10.05484375 16.18945312 9.1171875 C16.22950241 7.01574568 16.22950241 7.01574568 15 6 C11.51944126 6.17567358 11.51944126 6.17567358 8 7 C5.91254955 10.13117567 5.72346004 11.06946224 5.5859375 14.66796875 C5.54726563 15.56064453 5.50859375 16.45332031 5.46875 17.37304688 C5.42234375 18.76620117 5.42234375 18.76620117 5.375 20.1875 C5.33632813 21.12787109 5.29765625 22.06824219 5.2578125 23.03710938 C5.16356813 25.3578771 5.07795975 27.67863748 5 30 C1.25 31.125 1.25 31.125 -1 30 C-1.02505615 29.34402832 -1.0501123 28.68805664 -1.07592773 28.01220703 C-1.1917326 25.04959817 -1.31452886 22.08731969 -1.4375 19.125 C-1.47681641 18.09246094 -1.51613281 17.05992187 -1.55664062 15.99609375 C-1.59853516 15.00996094 -1.64042969 14.02382813 -1.68359375 13.0078125 C-1.72025146 12.09660645 -1.75690918 11.18540039 -1.79467773 10.24658203 C-1.86577065 7.96516519 -1.86577065 7.96516519 -3 6 C-7.07893732 5.60168777 -7.07893732 5.60168777 -10.66723633 7.20629883 C-12.39352033 9.52961969 -12.42450824 11.0087719 -12.51171875 13.88671875 C-12.56489258 15.2934082 -12.56489258 15.2934082 -12.61914062 16.72851562 C-12.64169922 17.70498047 -12.66425781 18.68144531 -12.6875 19.6875 C-12.72166016 20.67556641 -12.75582031 21.66363281 -12.79101562 22.68164062 C-12.87350538 25.12098053 -12.94265068 27.55996063 -13 30 C-14.65614657 30.38218767 -16.32457024 30.71395102 -18 31 C-19 30 -19 30 -19.11352539 27.13256836 C-19.10828857 25.88096924 -19.10305176 24.62937012 -19.09765625 23.33984375 C-19.0962413 22.67537735 -19.09482635 22.01091095 -19.09336853 21.3263092 C-19.08775518 19.19666101 -19.07520054 17.06711661 -19.0625 14.9375 C-19.05748671 13.49674631 -19.05292351 12.05599097 -19.04882812 10.61523438 C-19.03778145 7.07678898 -19.02050792 3.53840461 -19 0 C-16.625 -0.125 -16.625 -0.125 -14 0 C-13.34 0.66 -12.68 1.32 -12 2 C-11.319375 1.484375 -10.63875 0.96875 -9.9375 0.4375 C-6.143144 -1.41931251 -4.0521416 -0.97551557 0 0 Z " fill="#FEFDFD" transform="translate(462,305)"/>
<path d="M0 0 C1.31355469 -0.02578125 2.62710938 -0.0515625 3.98046875 -0.078125 C8.77362324 0.33229801 12.0592463 1.73051346 15.6875 4.875 C17.45920552 8.61526722 17.62217379 12.20163103 16.8125 16.25 C14.3125 19.1875 14.3125 19.1875 11.8125 21.25 C11.62134589 23.48552918 11.62134589 23.48552918 13.5625 25.75 C16.52375073 30.02266177 19.8125 35.96636228 19.8125 41.25 C17.5 41.9375 17.5 41.9375 14.8125 42.25 C11.64978008 39.92737756 10.56366025 36.74310776 9.125 33.1875 C8.68800781 32.12402344 8.25101563 31.06054688 7.80078125 29.96484375 C6.8125 27.25 6.8125 27.25 6.8125 25.25 C2.3575 24.26 2.3575 24.26 -2.1875 23.25 C-2.1875 29.19 -2.1875 35.13 -2.1875 41.25 C-6.1875 42.25 -6.1875 42.25 -8.1875 41.25 C-8.21214705 35.57169922 -8.23033462 29.89342931 -8.24243164 24.21508789 C-8.24747256 22.28181415 -8.25430519 20.34854424 -8.26293945 18.4152832 C-8.27501565 15.64273128 -8.28073057 12.87022959 -8.28515625 10.09765625 C-8.29031754 9.22786636 -8.29547882 8.35807648 -8.30079651 7.46192932 C-8.30099185 5.39094186 -8.24958168 3.32005676 -8.1875 1.25 C-6.23283483 -0.70466517 -2.65864994 0.02016038 0 0 Z M-2.1875 5.25 C-2.1875 9.54 -2.1875 13.83 -2.1875 18.25 C4.21075263 18.72326369 4.21075263 18.72326369 9.8125 16.25 C10.81924926 13.37680099 10.81924926 13.37680099 10.8125 10.25 C9.10034522 7.08251366 8.27514391 6.40421464 4.8125 5.25 C2.47950175 5.21045766 0.14541811 5.20598268 -2.1875 5.25 Z " fill="#FEFCFD" transform="translate(57.1875,293.75)"/>
<path d="M0 0 C1.98 0 3.96 0 6 0 C6 5.61 6 11.22 6 17 C11.94 17 17.88 17 24 17 C24 11.39 24 5.78 24 0 C25.98 0 27.96 0 30 0 C30 13.53 30 27.06 30 41 C27.525 41.495 27.525 41.495 25 42 C24 41 24 41 23.88647461 39.23413086 C23.89171143 38.48526611 23.89694824 37.73640137 23.90234375 36.96484375 C23.90484131 36.23644287 23.90733887 35.50804199 23.90991211 34.75756836 C23.91901611 33.8269458 23.92812012 32.89632324 23.9375 31.9375 C23.958125 28.988125 23.97875 26.03875 24 23 C18.06 23 12.12 23 6 23 C6 28.94 6 34.88 6 41 C2 42 2 42 0 41 C0 27.47 0 13.94 0 0 Z " fill="#FEFBFC" transform="translate(208,294)"/>
<path d="M0 0 C1.66611905 -0.042721 3.33382885 -0.04063832 5 0 C6.68300669 1.68300669 6.22809077 3.82008727 6.31640625 6.12890625 C6.37924805 7.68061523 6.37924805 7.68061523 6.44335938 9.26367188 C6.48267578 10.35228516 6.52199219 11.44089844 6.5625 12.5625 C6.60568359 13.65498047 6.64886719 14.74746094 6.69335938 15.87304688 C6.79982068 18.58189564 6.90183516 21.29083992 7 24 C7.58007812 23.278125 8.16015625 22.55625 8.7578125 21.8125 C9.53898437 20.884375 10.32015625 19.95625 11.125 19 C11.89070313 18.071875 12.65640625 17.14375 13.4453125 16.1875 C16 14 16 14 19.3046875 13.6875 C20.19414062 13.790625 21.08359375 13.89375 22 14 C22 17 22 17 20.03125 19.26171875 C19.1959375 20.06222656 18.360625 20.86273438 17.5 21.6875 C16.6646875 22.49574219 15.829375 23.30398438 14.96875 24.13671875 C14.3190625 24.75160156 13.669375 25.36648438 13 26 C14.4412478 30.34750022 16.65334274 33.23000036 19.625 36.6875 C24 41.78706625 24 41.78706625 24 44 C21.8125 44.8125 21.8125 44.8125 19 45 C14.17863571 41.19365977 10.69832987 35.85859023 7 31 C6.67 35.29 6.34 39.58 6 44 C3.525 44.495 3.525 44.495 1 45 C0 44 0 44 -0.12025452 42.20933533 C-0.11803391 41.42990067 -0.11581329 40.650466 -0.11352539 39.84741211 C-0.11341209 38.52615578 -0.11341209 38.52615578 -0.11329651 37.1782074 C-0.10555458 35.74227989 -0.10555458 35.74227989 -0.09765625 34.27734375 C-0.0962413 33.30213272 -0.09482635 32.32692169 -0.09336853 31.32215881 C-0.08775133 28.19390857 -0.07519593 25.06572877 -0.0625 21.9375 C-0.05748722 19.82226666 -0.05292393 17.70703219 -0.04882812 15.59179688 C-0.03777631 10.39450704 -0.02102146 5.19725855 0 0 Z " fill="#FEFBFC" transform="translate(315,291)"/>
<path d="M0 0 C3.16527701 3.35146978 4.01678885 5.87030783 4.375 10.4375 C4.125 13.25 4.125 13.25 2.125 15.25 C0.24560547 15.56884766 0.24560547 15.56884766 -2.0078125 15.6640625 C-2.81347656 15.70273437 -3.61914062 15.74140625 -4.44921875 15.78125 C-5.71185547 15.82765625 -5.71185547 15.82765625 -7 15.875 C-7.84949219 15.91367187 -8.69898437 15.95234375 -9.57421875 15.9921875 C-11.67411684 16.08656494 -13.77452891 16.16937586 -15.875 16.25 C-15.10020264 19.24152582 -15.10020264 19.24152582 -13.875 22.25 C-8.53074163 24.03141946 -3.32719759 23.31384343 2.125 22.25 C2.455 23.57 2.785 24.89 3.125 26.25 C-2.15112248 29.58228788 -6.80753425 30.094837 -12.875 29.25 C-17.13329237 27.91531135 -19.46689194 25.92140358 -21.8125 22.0625 C-23.5384112 15.86952453 -23.87642136 10.80197487 -21.125 4.875 C-19.0577014 1.21355212 -17.01662543 -0.83216053 -13.125 -2.5 C-8.14433561 -3.05340715 -4.23299696 -2.57660684 0 0 Z M-14.875 4.25 C-15.535 6.23 -16.195 8.21 -16.875 10.25 C-11.925 10.25 -6.975 10.25 -1.875 10.25 C-3.18797122 4.26461763 -3.18797122 4.26461763 -6.875 2.25 C-11.29846269 2.1810204 -11.29846269 2.1810204 -14.875 4.25 Z " fill="#FEFCFD" transform="translate(102.875,306.75)"/>
<path d="M0 0 C3.2826023 2.56478509 5.23359712 4.94970232 6.15234375 8.9921875 C6.77638329 15.0056594 6.20065573 19.63136299 3.15234375 24.9921875 C-1.24605653 29.17066776 -4.70486443 30.30035356 -10.78515625 30.2109375 C-14.92490204 29.77187355 -17.85542023 28.05285359 -20.66015625 25.0546875 C-23.49999776 20.12233119 -23.32968065 14.53108603 -22.84765625 8.9921875 C-21.18523601 4.26741419 -19.02110458 1.74055591 -14.84765625 -1.0078125 C-9.99413946 -2.58545667 -4.53675455 -2.47459339 0 0 Z M-12.66015625 4.0546875 C-16.2230091 7.21035716 -16.74309039 9.82104985 -17.16015625 14.4921875 C-16.82425797 18.25424823 -16.13423671 20.02810172 -13.84765625 22.9921875 C-10.96252647 25.33741685 -10.96252647 25.33741685 -7.34765625 24.8671875 C-3.91493884 24.278462 -3.91493884 24.278462 -1.97265625 22.4296875 C0.23208584 17.6527463 0.83650758 13.09690649 -0.84765625 8.1171875 C-2.62704003 4.73461063 -2.62704003 4.73461063 -6.22265625 3.3671875 C-9.77788312 2.72597413 -9.77788312 2.72597413 -12.66015625 4.0546875 Z " fill="#FEFCFD" transform="translate(407.84765625,306.0078125)"/>
<path d="M0 0 C4.62567524 4.9060192 4.49249901 9.43724279 4.375 15.98046875 C3.92913512 20.55615705 2.99208793 22.64115671 0.0625 26.1875 C-4.63205695 29.57194803 -9.3320933 29.94526794 -14.9375 29.1875 C-19.08212994 27.43754514 -21.63805688 25.04727952 -23.9375 21.1875 C-25.32923003 15.24743487 -25.3839783 9.8588815 -22.9375 4.1875 C-16.9907473 -3.24594087 -8.16221127 -5.03625802 0 0 Z M-15.9375 4.1875 C-18.87026814 8.80351183 -18.68540215 13.91323171 -17.9375 19.1875 C-16.12078877 22.59032421 -16.12078877 22.59032421 -12.9375 24.1875 C-9.28006132 24.1875 -6.99804525 24.00058469 -4.0625 21.75 C-1.96286985 18.83384702 -1.77635572 16.86525077 -1.75 13.3125 C-1.72873047 12.01699219 -1.72873047 12.01699219 -1.70703125 10.6953125 C-1.95526654 7.99417599 -2.42013557 6.4288357 -3.9375 4.1875 C-8.52657322 2.28260168 -11.60439293 1.4638327 -15.9375 4.1875 Z " fill="#FEFCFD" transform="translate(269.9375,306.8125)"/>
<path d="M0 0 C3.64082803 3.21249532 4.86864312 6.65558149 5.41015625 11.34375 C5.59164947 16.58338041 5.18326121 20.4457941 2.125 24.875 C-2.3297102 28.99560693 -5.70555062 30.21267595 -11.81640625 30.078125 C-15.17809961 29.74642091 -17.14228163 28.86243155 -19.875 26.875 C-23.27701848 22.37419295 -24.53693913 17.71788626 -24.265625 12.1171875 C-23.42552314 7.29500284 -21.38197956 3.33488645 -17.875 -0.0625 C-12.12611051 -3.11659754 -5.90529855 -2.310769 0 0 Z M-14.875 4.875 C-17.56240978 9.35401631 -18.45476304 12.83597407 -17.5078125 18.00390625 C-16.37088925 21.36554967 -14.77725835 22.91913024 -11.875 24.875 C-8.26918221 25.28849769 -8.26918221 25.28849769 -4.875 23.875 C-1.90607508 20.75382252 -0.62768531 18.12174337 -0.375 13.875 C-0.60956095 9.66099115 -2.02623467 7.03173996 -4.875 3.875 C-8.69801507 2.30658356 -11.39586834 2.67765369 -14.875 4.875 Z " fill="#FEFCFD" transform="translate(302.875,306.125)"/>
<path d="M0 0 C2.99452434 2.24589325 3.81623122 3.44869367 5 7 C5.08209792 8.77313851 5.10746294 10.54920775 5.09765625 12.32421875 C5.09443359 13.35224609 5.09121094 14.38027344 5.08789062 15.43945312 C5.07951172 16.51130859 5.07113281 17.58316406 5.0625 18.6875 C5.05798828 19.77095703 5.05347656 20.85441406 5.04882812 21.97070312 C5.03703743 24.64719085 5.02058063 27.32356777 5 30 C3.68 30.33 2.36 30.66 1 31 C0.34 30.01 -0.32 29.02 -1 28 C-1.639375 28.515625 -2.27875 29.03125 -2.9375 29.5625 C-7.17401839 31.55106986 -10.54996785 31.3532747 -15 30 C-18.02921527 27.41408453 -18.84825878 25.91044732 -19.5 22 C-18.86089108 18.16534651 -17.85492717 16.63531739 -15 14 C-10.24839904 12.11729019 -6.08027655 11.79264177 -1 12 C-1.66 10.02 -2.32 8.04 -3 6 C-7.95346987 4.40210649 -12.13282415 5.71693186 -17 7 C-17.33 5.68 -17.66 4.36 -18 3 C-11.86114048 -0.92204914 -7.10917973 -1.71195321 0 0 Z M-13 20 C-12.62095792 23.29075996 -12.62095792 23.29075996 -11 26 C-7.75320705 26.28860382 -5.59272742 26.28076562 -2.625 24.875 C-0.68333406 23.00957107 -0.68333406 23.00957107 -0.75 19.8125 C-0.87375 18.4203125 -0.87375 18.4203125 -1 17 C-7.63323955 16.49390584 -7.63323955 16.49390584 -13 20 Z " fill="#FEFCFD" transform="translate(131,305)"/>
<path d="M0 0 C0.83265381 0.00523682 1.66530762 0.01047363 2.52319336 0.01586914 C3.42231445 0.0190918 4.32143555 0.02231445 5.24780273 0.02563477 C6.66609375 0.03820312 6.66609375 0.03820312 8.11303711 0.05102539 C9.06243164 0.05553711 10.01182617 0.06004883 10.98999023 0.06469727 C13.34356776 0.07652429 15.69702188 0.09300514 18.05053711 0.11352539 C18.43272478 1.76967196 18.76448813 3.43809563 19.05053711 5.11352539 C18.05053711 6.11352539 18.05053711 6.11352539 14.67163086 6.21118164 C13.27706633 6.20450908 11.88251968 6.19255071 10.48803711 6.17602539 C9.77711914 6.17151367 9.06620117 6.16700195 8.33374023 6.16235352 C6.57263698 6.15053403 4.81157675 6.13259802 3.05053711 6.11352539 C3.05053711 10.07352539 3.05053711 14.03352539 3.05053711 18.11352539 C4.04956055 18.10192383 5.04858398 18.09032227 6.07788086 18.07836914 C7.36823242 18.0693457 8.65858398 18.06032227 9.98803711 18.05102539 C11.27581055 18.03942383 12.56358398 18.02782227 13.89038086 18.01586914 C17.05053711 18.11352539 17.05053711 18.11352539 18.05053711 19.11352539 C18.05053711 20.76352539 18.05053711 22.41352539 18.05053711 24.11352539 C13.10053711 24.11352539 8.15053711 24.11352539 3.05053711 24.11352539 C3.05053711 29.72352539 3.05053711 35.33352539 3.05053711 41.11352539 C-0.94946289 42.11352539 -0.94946289 42.11352539 -2.94946289 41.11352539 C-2.97410994 35.43522461 -2.99229751 29.7569547 -3.00439453 24.07861328 C-3.00943545 22.14533954 -3.01626808 20.21206963 -3.02490234 18.27880859 C-3.03697854 15.50625667 -3.04269346 12.73375498 -3.04711914 9.96118164 C-3.05228043 9.09139175 -3.05744171 8.22160187 -3.0627594 7.32545471 C-3.06295474 5.25446725 -3.01154457 3.18358215 -2.94946289 1.11352539 C-1.94946289 0.11352539 -1.94946289 0.11352539 0 0 Z " fill="#FEFCFD" transform="translate(361.949462890625,293.886474609375)"/>
<path d="M0 0 C1.16015625 0.11794922 1.16015625 0.11794922 2.34375 0.23828125 C4.5 0.6875 4.5 0.6875 7.5 2.6875 C7.6875 5.8125 7.6875 5.8125 7.5 8.6875 C6.84 8.3575 6.18 8.0275 5.5 7.6875 C1.63938967 6.40062989 -1.44150283 6.54992382 -5.5 6.6875 C-8.30959967 11.45258103 -8.15243955 16.30487371 -7.5 21.6875 C-6.11854581 24.57465115 -6.11854581 24.57465115 -3.5 25.6875 C0.50856135 25.51692292 3.84992787 24.29782594 7.5 22.6875 C8.25 24.4375 8.25 24.4375 8.5 26.6875 C6.28132865 29.46083918 4.89379675 30.55623442 1.5 31.6875 C-3.711794 32.08084294 -7.13896805 31.66093088 -11.5 28.6875 C-15.78070483 23.26527388 -15.1182143 16.25393833 -14.5 9.6875 C-13.01704159 5.38692062 -11.41748252 3.01350525 -7.5 0.6875 C-4.49032056 -0.31572648 -3.0759723 -0.34348357 0 0 Z " fill="#FEFCFD" transform="translate(157.5,304.3125)"/>
<path d="M0 0 C1.66611905 -0.042721 3.33382885 -0.04063832 5 0 C6 1 6 1 6.0625 4.5625 C6.041875 5.696875 6.02125 6.83125 6 8 C8.64 8 11.28 8 14 8 C14 9.65 14 11.3 14 13 C11.36 13 8.72 13 6 13 C6.33 19.27 6.66 25.54 7 32 C10.79788698 33.12126781 10.79788698 33.12126781 14 33 C14 34.65 14 36.3 14 38 C10.86128812 39.56935594 8.46144178 39.35201103 5 39 C2.2890625 37.15234375 2.2890625 37.15234375 0 34 C-0.60655971 30.37477371 -0.47238004 26.84998287 -0.3125 23.1875 C-0.27866211 21.71893555 -0.27866211 21.71893555 -0.24414062 20.22070312 C-0.18539727 17.81222545 -0.10332129 15.40690922 0 13 C-1.65 13 -3.3 13 -5 13 C-5 11.35 -5 9.7 -5 8 C-3.35 8 -1.7 8 0 8 C0 5.36 0 2.72 0 0 Z " fill="#FEFBFC" transform="translate(173,297)"/>
<path d="M0 0 C0 1.65 0 3.3 0 5 C-2 6 -2 6 -4.4375 5.8125 C-7.09800246 5.71828892 -7.09800246 5.71828892 -8.62817383 7.71386719 C-10.17228475 10.28711059 -10.41634754 11.79004325 -10.51171875 14.765625 C-10.54716797 15.65507812 -10.58261719 16.54453125 -10.61914062 17.4609375 C-10.64169922 18.38132812 -10.66425781 19.30171875 -10.6875 20.25 C-10.72166016 21.18585938 -10.75582031 22.12171875 -10.79101562 23.0859375 C-10.87332162 25.39050533 -10.9425263 27.69470119 -11 30 C-12.65614657 30.38218767 -14.32457024 30.71395102 -16 31 C-17 30 -17 30 -17.11352539 27.13256836 C-17.10828857 25.88096924 -17.10305176 24.62937012 -17.09765625 23.33984375 C-17.0962413 22.67537735 -17.09482635 22.01091095 -17.09336853 21.3263092 C-17.08775518 19.19666101 -17.07520054 17.06711661 -17.0625 14.9375 C-17.05748671 13.49674631 -17.05292351 12.05599097 -17.04882812 10.61523438 C-17.03778145 7.07678898 -17.02050792 3.53840461 -17 0 C-15.35 0 -13.7 0 -12 0 C-11.67 0.66 -11.34 1.32 -11 2 C-10.484375 1.484375 -9.96875 0.96875 -9.4375 0.4375 C-6.0289729 -1.57265701 -3.76893143 -0.79727396 0 0 Z " fill="#FEFAFB" transform="translate(438,305)"/>
<path d="M0 0 C9.57 0 19.14 0 29 0 C29.33 1.32 29.66 2.64 30 4 C19.77 4 9.54 4 -1 4 C-0.67 2.68 -0.34 1.36 0 0 Z " fill="#FDF1F6" transform="translate(282,123)"/>
<path d="M0 0 C9.57 0 19.14 0 29 0 C29.33 1.32 29.66 2.64 30 4 C19.77 4 9.54 4 -1 4 C-0.67 2.68 -0.34 1.36 0 0 Z " fill="#FDF1F6" transform="translate(242,123)"/>
<path d="M0 0 C10.23 0 20.46 0 31 0 C31 0.99 31 1.98 31 3 C20.77 3 10.54 3 0 3 C0 2.01 0 1.02 0 0 Z " fill="#FEFAFB" transform="translate(280,161)"/>
<path d="M0 0 C10.23 0 20.46 0 31 0 C31 0.99 31 1.98 31 3 C20.77 3 10.54 3 0 3 C0 2.01 0 1.02 0 0 Z " fill="#FEFAFB" transform="translate(240,161)"/>
</svg>
